<?xml version="1.0" encoding="UTF-8"?>
<svg width="200px" height="100px" viewBox="0 0 200 100" version="1.1" xmlns="http://www.w3.org/2000/svg" xmlns:xlink="http://www.w3.org/1999/xlink">
    <title>车型/工程车02</title>
    <defs>
        <linearGradient x1="50%" y1="-71.2868832%" x2="50%" y2="125.006199%" id="linearGradient-1">
            <stop stop-color="#0C0C0C" offset="0%"></stop>
            <stop stop-color="#FFFFFF" stop-opacity="0" offset="100%"></stop>
        </linearGradient>
        <path d="M8.32312533,0 L35,0 C36.2687623,-2.33067847e-16 37.2972973,1.02853503 37.2972973,2.2972973 L37.2972973,43.285395 L37.2972973,43.285395 L0,43.285395 L0,22.3475947 C2.11614899e-14,21.083621 0.177332618,19.8258976 0.526812859,18.6111989 L5.20631718,2.34650825 C5.60607898,0.957044409 6.8772971,2.65594337e-16 8.32312533,0 Z" id="path-2"></path>
        <rect id="path-4" x="0" y="0" width="9.86486486" height="9.32432432" rx="1.35135135"></rect>
        <linearGradient x1="50%" y1="0%" x2="50%" y2="100%" id="linearGradient-6">
            <stop stop-color="#EEEEEE" offset="0%"></stop>
            <stop stop-color="#D6D6D6" offset="18.3510336%"></stop>
            <stop stop-color="#E3E3E3" offset="49.2572229%"></stop>
            <stop stop-color="#C2C2C2" offset="84.9803497%"></stop>
            <stop stop-color="#D8D8D8" offset="100%"></stop>
        </linearGradient>
        <rect id="path-7" x="0" y="0" width="20.6756757" height="9.32432432" rx="1.89189189"></rect>
    </defs>
    <g id="车型/工程车02" stroke="none" stroke-width="1" fill="none" fill-rule="evenodd">
        <path d="M100.2124,86.6297 C145.0648,86.6297 181.4248,85.81745 181.4248,84.81485 C181.4248,83.81225 145.0648,83 100.2124,83 C55.36009,83 19,83.81225 19,84.81485 C19,85.81745 55.36009,86.6297 100.2124,86.6297 Z" id="路径" fill-opacity="0.6" fill="url(#linearGradient-1)" fill-rule="nonzero"></path>
        <g id="编组-17" transform="translate(20.000000, 18.000000)">
            <path d="M15.0276278,3.94505886 C20.3952332,4.06702032 24.3207195,4.27965706 26.8040866,4.58296907 C29.4754548,4.90924304 31.0362547,5.40861371 31.4864865,6.08108108 L13.7837838,6.08108108 L13.7837838,5.16097738 C13.7837676,4.4892708 14.3282934,3.94474502 15,3.94474502 C15.0092102,3.94474502 15.01842,3.94484964 15.0276278,3.94505886 Z" id="矩形" fill="#025880"></path>
            <rect id="矩形备份-82" fill="#454545" x="145.135135" y="39.4594595" width="2.43243243" height="9.86486486"></rect>
            <rect id="矩形备份-83" fill="#454545" x="139.189189" y="39.4594595" width="2.43243243" height="9.86486486"></rect>
            <rect id="矩形" fill="#ABABAB" x="38.1081081" y="20.9459459" width="5.81081081" height="2.16216216"></rect>
            <path d="M9.09583761,8.96735797 C9.24445422,8.95344805 9.37620801,9.0626494 9.39011793,9.21126601 C9.40339558,9.35312732 9.30449954,9.47962395 9.16622362,9.50292857 L9.14620989,9.50554633 L7.92696491,9.6196628 C6.7614388,9.72875139 5.86693789,10.6958755 5.84419354,11.8614523 L5.84374981,11.9069633 L5.84374981,15.1645288 C5.84374981,15.313795 5.72274569,15.4347991 5.57347954,15.4347991 C5.43099822,15.4347991 5.31426804,15.3245453 5.30395059,15.1846994 L5.30320927,15.1645288 L5.30320927,11.9069633 C5.30320927,10.4582203 6.39375776,9.24491431 7.82863682,9.08636755 L7.87659262,9.08147444 L9.09583761,8.96735797 Z" id="路径-57" fill="#000000" fill-rule="nonzero"></path>
            <rect id="矩形备份-64" fill="#1C1C1C" x="34.3243243" y="38.6486486" width="124.189189" height="2.56756757"></rect>
            <path d="M158.918919,38.6486486 C159.515984,38.6486486 160,39.1326651 160,39.7297297 L160,40.1351351 C160,40.7321997 159.515984,41.2162162 158.918919,41.2162162 L158.918919,41.2162162 L158.918919,41.2162162 L158.918919,38.6486486 Z" id="矩形备份-79" fill="#E02020"></path>
            <rect id="矩形备份-78" fill="#1C1C1C" x="48.2432432" y="6.75675676" width="2.56756757" height="32.5675676"></rect>
            <rect id="矩形备份-65" fill="#1C1C1C" x="6.75675676" y="45" width="142.567568" height="5.54054054"></rect>
            <rect id="矩形" fill="#1C1C1C" x="31.4864865" y="40" width="25.1351351" height="8.37837838"></rect>
            <g id="矩形-8" transform="translate(3.648649, 6.081081)">
                <mask id="mask-3" fill="white">
                    <use xlink:href="#path-2"></use>
                </mask>
                <use id="矩形" fill="#0086C5" xlink:href="#path-2"></use>
                <path d="M37.5878378,4.70945946 L37.5878378,13.2635135 L30.646469,13.2635135 C30.3796557,13.2635135 30.1381017,13.1553661 29.9632509,12.9805153 C29.7971519,12.8144163 29.691246,12.5881243 29.6810604,12.3371664 L29.6810604,12.3371664 L32.1087744,5.3498421 C32.1775688,5.15779113 32.3029732,4.99769548 32.4621791,4.88561256 C32.6213851,4.77352964 32.8143926,4.70945946 33.0183931,4.70945946 L33.0183931,4.70945946 L37.5878378,4.70945946 Z" id="矩形" stroke="#0A0A0A" stroke-width="0.5" fill="#323232" mask="url(#mask-3)"></path>
                <path d="M23.7568376,4.30405405 C23.9947727,4.30405405 24.2149947,4.39067608 24.3849425,4.53606461 C24.5548904,4.68145314 24.6745641,4.88560819 24.7114028,5.12067423 L24.7114028,5.12067423 L25.7491196,11.7422958 C25.7904294,12.0058918 25.7209851,12.2612772 25.5753143,12.4610911 C25.4329705,12.6563415 25.2178422,12.7985298 24.9621452,12.8434663 L24.9621452,12.8434663 L12.26421,12.8581081 C11.9973967,12.8581081 11.7558427,12.7499607 11.5809919,12.5751099 C11.410661,12.404779 11.3036295,12.1711488 11.2982098,11.9125317 L11.2982098,11.9125317 L12.49909,5.09992722 C12.5403367,4.8696334 12.661128,4.67066511 12.8300972,4.52927027 C12.9990665,4.38787544 13.2162136,4.30405405 13.450172,4.30405405 L13.450172,4.30405405 Z" id="矩形备份-76" stroke="#000000" stroke-width="0.5" fill="#323232" mask="url(#mask-3)"></path>
                <path d="M7.09564405,2.11291559 C7.34875764,2.0285188 7.61211754,2.05470639 7.83329825,2.16527158 C8.05447895,2.27583677 8.23348046,2.47077955 8.31787726,2.72389313 C8.37888643,2.90686514 8.38373871,3.1039091 8.33180952,3.28966226 L8.33180952,3.28966226 L3.7764309,19.5844656 C3.71808199,19.7931824 3.59380728,19.9697011 3.42993994,20.0940407 C3.26607261,20.2183802 3.06261266,20.2905405 2.84589327,20.2905405 L2.84589327,20.2905405 L0.490790442,20.2905405 C0.223977201,20.2905405 -0.0175768527,20.1823931 -0.192427597,20.0075424 C-0.365239402,19.8347306 -0.472894485,19.596762 -0.475381723,19.3336479 L-0.475381723,19.3336479 L0.669095305,4.87659807 C0.684449912,4.683285 0.756856176,4.50392987 0.871415011,4.35756794 C0.985973847,4.21120601 1.14268525,4.09783729 1.32665015,4.03649706 L1.32665015,4.03649706 Z" id="矩形备份-77" stroke="#000000" stroke-width="0.5" fill="#323232" mask="url(#mask-3)"></path>
                <rect id="矩形" fill="#000000" opacity="0.186988467" mask="url(#mask-3)" x="8.91891892" y="40.4054054" width="7.02702703" height="1.21621622"></rect>
                <rect id="矩形备份-72" fill="#F7B500" mask="url(#mask-3)" x="32.1621622" y="28.6486486" width="5.13513514" height="1.21621622"></rect>
                <rect id="矩形备份-74" fill="#F7B500" mask="url(#mask-3)" x="32.1621622" y="23.3783784" width="5.13513514" height="1.21621622"></rect>
                <rect id="矩形备份-73" fill="#F7B500" mask="url(#mask-3)" x="32.1621622" y="26.6216216" width="5.13513514" height="1.75675676"></rect>
                <rect id="矩形备份-75" fill="#F7B500" mask="url(#mask-3)" x="32.1621622" y="21.3513514" width="5.13513514" height="1.75675676"></rect>
                <path d="M-0.540540541,32.7027027 L3.10810811,32.7027027 C4.07833807,32.7027027 4.86486486,33.4892295 4.86486486,34.4594595 C4.86486486,35.4296894 4.07833807,36.2162162 3.10810811,36.2162162 L-0.540540541,36.2162162 L-0.540540541,36.2162162 L-0.540540541,32.7027027 Z" id="矩形" fill="#FFFFFF" mask="url(#mask-3)"></path>
                <path d="M-0.540540541,36.6216216 L2.63513514,36.6216216 C2.82171782,36.6216216 2.97297297,36.7728768 2.97297297,36.9594595 C2.97297297,37.1460421 2.82171782,37.2972973 2.63513514,37.2972973 L-0.540540541,37.2972973 L-0.540540541,37.2972973 L-0.540540541,36.6216216 Z" id="矩形备份-85" fill="#FFFFFF" mask="url(#mask-3)"></path>
                <path d="M-0.540540541,31.7567568 L2.63513514,31.7567568 C2.82171782,31.7567568 2.97297297,31.9080119 2.97297297,32.0945946 C2.97297297,32.2811773 2.82171782,32.4324324 2.63513514,32.4324324 L-0.540540541,32.4324324 L-0.540540541,32.4324324 L-0.540540541,31.7567568 Z" id="矩形备份-86" fill="#FFFFFF" mask="url(#mask-3)"></path>
            </g>
            <path d="M49.0540541,53.3783784 C49.0540541,45.2433733 42.4593294,38.6486486 34.3243243,38.6486486 C26.1893192,38.6486486 19.5945946,45.2433733 19.5945946,53.3783784 C22.5675676,53.3783784 44.0540541,53.3783784 49.0540541,53.3783784 Z" id="椭圆形" fill="#0E0E2B"></path>
            <path d="M124.72973,53.3783784 C124.72973,45.2433733 118.135005,38.6486486 110,38.6486486 C101.864995,38.6486486 95.2702703,45.2433733 95.2702703,53.3783784 C98.2432432,53.3783784 119.72973,53.3783784 124.72973,53.3783784 Z" id="椭圆形备份-26" fill="#0E0E2B"></path>
            <path d="M149.864865,53.3783784 C149.864865,45.2433733 143.27014,38.6486486 135.135135,38.6486486 C127.00013,38.6486486 120.405405,45.2433733 120.405405,53.3783784 C123.378378,53.3783784 144.864865,53.3783784 149.864865,53.3783784 Z" id="椭圆形备份-27" fill="#0E0E2B"></path>
            <rect id="矩形备份-63" fill="#454545" x="58.2432432" y="42.027027" width="2.43243243" height="9.86486486"></rect>
            <rect id="矩形" fill="#313D48" x="48.5135135" y="43.7837838" width="14.8648649" height="12.8378378"></rect>
            <rect id="矩形" fill="#454545" x="81.4864865" y="42.027027" width="2.43243243" height="9.86486486"></rect>
            <rect id="矩形备份-62" fill="#454545" x="66.8918919" y="42.027027" width="2.43243243" height="9.86486486"></rect>
            <rect id="矩形备份-60" fill="#454545" x="93.2432432" y="42.027027" width="2.43243243" height="9.86486486"></rect>
            <rect id="矩形备份-61" fill="#454545" x="87.2972973" y="42.027027" width="2.43243243" height="9.86486486"></rect>
            <rect id="矩形备份-59" fill="#313D48" x="48.5135135" y="41.2162162" width="50.5405405" height="1.62162162"></rect>
            <rect id="矩形备份-54" fill="#313D48" x="62.7027027" y="45.9459459" width="12.5675676" height="10.6756757"></rect>
            <path d="M62.027027,45 L62.027027,55.4054054 L49.8648649,55.4054054 L49.8648649,45 L62.027027,45 Z M61.8918919,45.1351351 L50,45.1351351 L50,55.2702703 L61.8918919,55.2702703 L61.8918919,45.1351351 Z" id="矩形备份-53" fill="#000000" fill-rule="nonzero"></path>
            <g id="编组-15" transform="translate(22.432432, 40.810811)">
                <circle id="椭圆形" fill="#3A3A3A" cx="11.6891892" cy="11.6891892" r="11.6891892"></circle>
                <circle id="椭圆形备份-20" fill="#2B2B2B" cx="11.6891892" cy="11.6891892" r="11.0135135"></circle>
                <circle id="椭圆形备份-21" fill="#232323" cx="11.6891892" cy="11.6891892" r="7.90540541"></circle>
                <circle id="椭圆形备份-22" fill="#DBD9D9" cx="11.6891892" cy="11.6891892" r="6.82432432"></circle>
                <circle id="椭圆形备份-25" fill="#F1F1F1" cx="11.6891892" cy="11.6891892" r="6.41891892"></circle>
                <circle id="椭圆形备份-23" fill="#000000" cx="11.6891892" cy="11.6891892" r="1.55405405"></circle>
                <circle id="椭圆形备份-24" stroke="#282828" stroke-width="0.5" cx="11.6891892" cy="11.6891892" r="4.00675676"></circle>
                <g id="编组-14" transform="translate(5.540541, 5.675676)" fill="#303030">
                    <path d="M5.40540541,0 L6.89189189,0 L6.89189189,0.0675675676 C6.89189189,0.478049476 6.55913056,0.810810811 6.14864865,0.810810811 C5.73816674,0.810810811 5.40540541,0.478049476 5.40540541,0.0675675676 L5.40540541,0 L5.40540541,0 Z" id="矩形"></path>
                    <path d="M5.40540541,11.3513514 L6.89189189,11.3513514 L6.89189189,11.4189189 C6.89189189,11.8294008 6.55913056,12.1621622 6.14864865,12.1621622 C5.73816674,12.1621622 5.40540541,11.8294008 5.40540541,11.4189189 L5.40540541,11.3513514 L5.40540541,11.3513514 Z" id="矩形备份-51" transform="translate(6.148649, 11.756757) scale(1, -1) translate(-6.148649, -11.756757) "></path>
                    <path d="M11.0810811,5.67567568 L12.5675676,5.67567568 L12.5675676,5.74324324 C12.5675676,6.15372515 12.2348062,6.48648649 11.8243243,6.48648649 C11.4138424,6.48648649 11.0810811,6.15372515 11.0810811,5.74324324 L11.0810811,5.67567568 L11.0810811,5.67567568 Z" id="矩形" transform="translate(11.824324, 6.081081) rotate(90.000000) translate(-11.824324, -6.081081) "></path>
                    <path d="M-0.27027027,5.67567568 L1.21621622,5.67567568 L1.21621622,5.74324324 C1.21621622,6.15372515 0.883454882,6.48648649 0.472972973,6.48648649 C0.0624910643,6.48648649 -0.27027027,6.15372515 -0.27027027,5.74324324 L-0.27027027,5.67567568 L-0.27027027,5.67567568 Z" id="矩形备份-51" transform="translate(0.472973, 6.081081) scale(1, -1) rotate(-90.000000) translate(-0.472973, -6.081081) "></path>
                    <path d="M9.41871416,1.66236692 L10.9052006,1.66236692 L10.9052006,1.72993449 C10.9052006,2.14041639 10.5724393,2.47317773 10.1619574,2.47317773 C9.7514755,2.47317773 9.41871416,2.14041639 9.41871416,1.72993449 L9.41871416,1.66236692 L9.41871416,1.66236692 Z" id="矩形" transform="translate(10.161957, 2.067772) rotate(45.000000) translate(-10.161957, -2.067772) "></path>
                    <path d="M1.39209665,9.68898443 L2.87858313,9.68898443 L2.87858313,9.756552 C2.87858313,10.1670339 2.5458218,10.4997952 2.13533989,10.4997952 C1.72485798,10.4997952 1.39209665,10.1670339 1.39209665,9.756552 L1.39209665,9.68898443 L1.39209665,9.68898443 Z" id="矩形备份-51" transform="translate(2.135340, 10.094390) scale(1, -1) rotate(-45.000000) translate(-2.135340, -10.094390) "></path>
                    <path d="M9.41871416,9.68898443 L10.9052006,9.68898443 L10.9052006,9.756552 C10.9052006,10.1670339 10.5724393,10.4997952 10.1619574,10.4997952 C9.7514755,10.4997952 9.41871416,10.1670339 9.41871416,9.756552 L9.41871416,9.68898443 L9.41871416,9.68898443 Z" id="矩形" transform="translate(10.161957, 10.094390) rotate(135.000000) translate(-10.161957, -10.094390) "></path>
                    <path d="M1.39209665,1.66236692 L2.87858313,1.66236692 L2.87858313,1.72993449 C2.87858313,2.14041639 2.5458218,2.47317773 2.13533989,2.47317773 C1.72485798,2.47317773 1.39209665,2.14041639 1.39209665,1.72993449 L1.39209665,1.66236692 L1.39209665,1.66236692 Z" id="矩形备份-51" transform="translate(2.135340, 2.067772) scale(1, -1) rotate(-135.000000) translate(-2.135340, -2.067772) "></path>
                </g>
            </g>
            <g id="编组-15备份" transform="translate(98.378378, 40.810811)">
                <circle id="椭圆形" fill="#3A3A3A" cx="11.6891892" cy="11.6891892" r="11.6891892"></circle>
                <circle id="椭圆形备份-20" fill="#2B2B2B" cx="11.6891892" cy="11.6891892" r="11.0135135"></circle>
                <circle id="椭圆形备份-21" fill="#232323" cx="11.6891892" cy="11.6891892" r="7.90540541"></circle>
                <circle id="椭圆形备份-22" fill="#DBD9D9" cx="11.6891892" cy="11.6891892" r="6.82432432"></circle>
                <circle id="椭圆形备份-25" fill="#F1F1F1" cx="11.6891892" cy="11.6891892" r="6.41891892"></circle>
                <circle id="椭圆形备份-23" fill="#000000" cx="11.6891892" cy="11.6891892" r="1.55405405"></circle>
                <circle id="椭圆形备份-24" stroke="#282828" stroke-width="0.5" cx="11.6891892" cy="11.6891892" r="4.00675676"></circle>
                <g id="编组-14" transform="translate(5.540541, 5.675676)" fill="#303030">
                    <path d="M5.40540541,0 L6.89189189,0 L6.89189189,0.0675675676 C6.89189189,0.478049476 6.55913056,0.810810811 6.14864865,0.810810811 C5.73816674,0.810810811 5.40540541,0.478049476 5.40540541,0.0675675676 L5.40540541,0 L5.40540541,0 Z" id="矩形"></path>
                    <path d="M5.40540541,11.3513514 L6.89189189,11.3513514 L6.89189189,11.4189189 C6.89189189,11.8294008 6.55913056,12.1621622 6.14864865,12.1621622 C5.73816674,12.1621622 5.40540541,11.8294008 5.40540541,11.4189189 L5.40540541,11.3513514 L5.40540541,11.3513514 Z" id="矩形备份-51" transform="translate(6.148649, 11.756757) scale(1, -1) translate(-6.148649, -11.756757) "></path>
                    <path d="M11.0810811,5.67567568 L12.5675676,5.67567568 L12.5675676,5.74324324 C12.5675676,6.15372515 12.2348062,6.48648649 11.8243243,6.48648649 C11.4138424,6.48648649 11.0810811,6.15372515 11.0810811,5.74324324 L11.0810811,5.67567568 L11.0810811,5.67567568 Z" id="矩形" transform="translate(11.824324, 6.081081) rotate(90.000000) translate(-11.824324, -6.081081) "></path>
                    <path d="M-0.27027027,5.67567568 L1.21621622,5.67567568 L1.21621622,5.74324324 C1.21621622,6.15372515 0.883454882,6.48648649 0.472972973,6.48648649 C0.0624910643,6.48648649 -0.27027027,6.15372515 -0.27027027,5.74324324 L-0.27027027,5.67567568 L-0.27027027,5.67567568 Z" id="矩形备份-51" transform="translate(0.472973, 6.081081) scale(1, -1) rotate(-90.000000) translate(-0.472973, -6.081081) "></path>
                    <path d="M9.41871416,1.66236692 L10.9052006,1.66236692 L10.9052006,1.72993449 C10.9052006,2.14041639 10.5724393,2.47317773 10.1619574,2.47317773 C9.7514755,2.47317773 9.41871416,2.14041639 9.41871416,1.72993449 L9.41871416,1.66236692 L9.41871416,1.66236692 Z" id="矩形" transform="translate(10.161957, 2.067772) rotate(45.000000) translate(-10.161957, -2.067772) "></path>
                    <path d="M1.39209665,9.68898443 L2.87858313,9.68898443 L2.87858313,9.756552 C2.87858313,10.1670339 2.5458218,10.4997952 2.13533989,10.4997952 C1.72485798,10.4997952 1.39209665,10.1670339 1.39209665,9.756552 L1.39209665,9.68898443 L1.39209665,9.68898443 Z" id="矩形备份-51" transform="translate(2.135340, 10.094390) scale(1, -1) rotate(-45.000000) translate(-2.135340, -10.094390) "></path>
                    <path d="M9.41871416,9.68898443 L10.9052006,9.68898443 L10.9052006,9.756552 C10.9052006,10.1670339 10.5724393,10.4997952 10.1619574,10.4997952 C9.7514755,10.4997952 9.41871416,10.1670339 9.41871416,9.756552 L9.41871416,9.68898443 L9.41871416,9.68898443 Z" id="矩形" transform="translate(10.161957, 10.094390) rotate(135.000000) translate(-10.161957, -10.094390) "></path>
                    <path d="M1.39209665,1.66236692 L2.87858313,1.66236692 L2.87858313,1.72993449 C2.87858313,2.14041639 2.5458218,2.47317773 2.13533989,2.47317773 C1.72485798,2.47317773 1.39209665,2.14041639 1.39209665,1.72993449 L1.39209665,1.66236692 L1.39209665,1.66236692 Z" id="矩形备份-51" transform="translate(2.135340, 2.067772) scale(1, -1) rotate(-135.000000) translate(-2.135340, -2.067772) "></path>
                </g>
            </g>
            <g id="编组-15备份-2" transform="translate(123.378378, 40.810811)">
                <circle id="椭圆形" fill="#3A3A3A" cx="11.6891892" cy="11.6891892" r="11.6891892"></circle>
                <circle id="椭圆形备份-20" fill="#2B2B2B" cx="11.6891892" cy="11.6891892" r="11.0135135"></circle>
                <circle id="椭圆形备份-21" fill="#232323" cx="11.6891892" cy="11.6891892" r="7.90540541"></circle>
                <circle id="椭圆形备份-22" fill="#DBD9D9" cx="11.6891892" cy="11.6891892" r="6.82432432"></circle>
                <circle id="椭圆形备份-25" fill="#F1F1F1" cx="11.6891892" cy="11.6891892" r="6.41891892"></circle>
                <circle id="椭圆形备份-23" fill="#000000" cx="11.6891892" cy="11.6891892" r="1.55405405"></circle>
                <circle id="椭圆形备份-24" stroke="#282828" stroke-width="0.5" cx="11.6891892" cy="11.6891892" r="4.00675676"></circle>
                <g id="编组-14" transform="translate(5.540541, 5.675676)" fill="#303030">
                    <path d="M5.40540541,0 L6.89189189,0 L6.89189189,0.0675675676 C6.89189189,0.478049476 6.55913056,0.810810811 6.14864865,0.810810811 C5.73816674,0.810810811 5.40540541,0.478049476 5.40540541,0.0675675676 L5.40540541,0 L5.40540541,0 Z" id="矩形"></path>
                    <path d="M5.40540541,11.3513514 L6.89189189,11.3513514 L6.89189189,11.4189189 C6.89189189,11.8294008 6.55913056,12.1621622 6.14864865,12.1621622 C5.73816674,12.1621622 5.40540541,11.8294008 5.40540541,11.4189189 L5.40540541,11.3513514 L5.40540541,11.3513514 Z" id="矩形备份-51" transform="translate(6.148649, 11.756757) scale(1, -1) translate(-6.148649, -11.756757) "></path>
                    <path d="M11.0810811,5.67567568 L12.5675676,5.67567568 L12.5675676,5.74324324 C12.5675676,6.15372515 12.2348062,6.48648649 11.8243243,6.48648649 C11.4138424,6.48648649 11.0810811,6.15372515 11.0810811,5.74324324 L11.0810811,5.67567568 L11.0810811,5.67567568 Z" id="矩形" transform="translate(11.824324, 6.081081) rotate(90.000000) translate(-11.824324, -6.081081) "></path>
                    <path d="M-0.27027027,5.67567568 L1.21621622,5.67567568 L1.21621622,5.74324324 C1.21621622,6.15372515 0.883454882,6.48648649 0.472972973,6.48648649 C0.0624910643,6.48648649 -0.27027027,6.15372515 -0.27027027,5.74324324 L-0.27027027,5.67567568 L-0.27027027,5.67567568 Z" id="矩形备份-51" transform="translate(0.472973, 6.081081) scale(1, -1) rotate(-90.000000) translate(-0.472973, -6.081081) "></path>
                    <path d="M9.41871416,1.66236692 L10.9052006,1.66236692 L10.9052006,1.72993449 C10.9052006,2.14041639 10.5724393,2.47317773 10.1619574,2.47317773 C9.7514755,2.47317773 9.41871416,2.14041639 9.41871416,1.72993449 L9.41871416,1.66236692 L9.41871416,1.66236692 Z" id="矩形" transform="translate(10.161957, 2.067772) rotate(45.000000) translate(-10.161957, -2.067772) "></path>
                    <path d="M1.39209665,9.68898443 L2.87858313,9.68898443 L2.87858313,9.756552 C2.87858313,10.1670339 2.5458218,10.4997952 2.13533989,10.4997952 C1.72485798,10.4997952 1.39209665,10.1670339 1.39209665,9.756552 L1.39209665,9.68898443 L1.39209665,9.68898443 Z" id="矩形备份-51" transform="translate(2.135340, 10.094390) scale(1, -1) rotate(-45.000000) translate(-2.135340, -10.094390) "></path>
                    <path d="M9.41871416,9.68898443 L10.9052006,9.68898443 L10.9052006,9.756552 C10.9052006,10.1670339 10.5724393,10.4997952 10.1619574,10.4997952 C9.7514755,10.4997952 9.41871416,10.1670339 9.41871416,9.756552 L9.41871416,9.68898443 L9.41871416,9.68898443 Z" id="矩形" transform="translate(10.161957, 10.094390) rotate(135.000000) translate(-10.161957, -10.094390) "></path>
                    <path d="M1.39209665,1.66236692 L2.87858313,1.66236692 L2.87858313,1.72993449 C2.87858313,2.14041639 2.5458218,2.47317773 2.13533989,2.47317773 C1.72485798,2.47317773 1.39209665,2.14041639 1.39209665,1.72993449 L1.39209665,1.66236692 L1.39209665,1.66236692 Z" id="矩形备份-51" transform="translate(2.135340, 2.067772) scale(1, -1) rotate(-135.000000) translate(-2.135340, -2.067772) "></path>
                </g>
            </g>
            <path d="M1.0254372,28.6693164 L2.24165342,28.0206677 C2.43921156,27.9153034 2.68477874,27.9900412 2.79014308,28.1875994 C2.82145771,28.2463143 2.83783784,28.3118348 2.83783784,28.3783784 L2.83783784,53.3783784 C2.83783784,53.6022776 2.65633166,53.7837838 2.43243243,53.7837838 C2.36588885,53.7837838 2.30036834,53.7674037 2.24165342,53.736089 L1.0254372,53.0874404 C0.893330382,53.0169834 0.810810811,52.8794508 0.810810811,52.7297297 L0.810810811,29.027027 C0.810810811,28.877306 0.893330382,28.7397733 1.0254372,28.6693164 Z" id="矩形" fill="#232323"></path>
            <path d="M0.540540541,32.972973 L0.810810811,32.972973 L0.810810811,32.972973 L0.810810811,35.4054054 L0.540540541,35.4054054 C0.242008243,35.4054054 1.47581965e-16,35.1633972 0,34.8648649 L0,33.5135135 C7.44626402e-17,33.2149812 0.242008243,32.972973 0.540540541,32.972973 Z" id="矩形" fill="#F7B500"></path>
            <path d="M0.540540541,42.5675676 L0.810810811,42.5675676 L0.810810811,42.5675676 L0.810810811,45 L0.540540541,45 C0.242008243,45 1.47581965e-16,44.7579918 0,44.4594595 L0,43.1081081 C7.44626402e-17,42.8095758 0.242008243,42.5675676 0.540540541,42.5675676 Z" id="矩形备份-52" fill="#F7B500"></path>
            <g id="矩形-9" transform="translate(1.891892, 46.081081)">
                <mask id="mask-5" fill="white">
                    <use xlink:href="#path-4"></use>
                </mask>
                <use id="矩形" fill="#D8D8D8" xlink:href="#path-4"></use>
                <rect id="矩形" fill="#C6C6C6" mask="url(#mask-5)" x="-1.89189189" y="2.43243243" width="12.8378378" height="1"></rect>
                <rect id="矩形备份-66" fill="#C6C6C6" mask="url(#mask-5)" x="-1.89189189" y="4.18918919" width="12.8378378" height="1"></rect>
                <rect id="矩形备份-67" fill="#C6C6C6" mask="url(#mask-5)" x="-1.89189189" y="5.94594595" width="12.8378378" height="1"></rect>
                <rect id="矩形备份-68" fill="#C6C6C6" mask="url(#mask-5)" x="-1.89189189" y="7.7027027" width="12.8378378" height="1"></rect>
            </g>
            <rect id="矩形" fill="#828282" x="58.2432432" y="47.2972973" width="2.56756757" height="1"></rect>
            <rect id="矩形备份-55" fill="#000000" x="64.1891892" y="47.972973" width="9.72972973" height="1"></rect>
            <rect id="矩形备份-56" fill="#000000" x="64.1891892" y="49.5945946" width="9.72972973" height="1"></rect>
            <rect id="矩形备份-57" fill="#000000" x="64.1891892" y="51.2162162" width="9.72972973" height="1"></rect>
            <g id="矩形-7" transform="translate(76.891892, 46.081081)">
                <mask id="mask-8" fill="white">
                    <use xlink:href="#path-7"></use>
                </mask>
                <use id="矩形" fill="url(#linearGradient-6)" xlink:href="#path-7"></use>
                <rect id="矩形" fill="#363636" mask="url(#mask-8)" x="2.83783784" y="-0.810810811" width="1.75675676" height="12.1621622"></rect>
                <rect id="矩形备份-58" fill="#363636" mask="url(#mask-8)" x="15" y="-0.810810811" width="1.75675676" height="12.1621622"></rect>
            </g>
            <path d="M52.1621622,0 L49.9838584,2.0567633 L47.6885957,2.0567633 C46.5322609,2.0567633 45.5923783,2.98326984 45.5711666,4.134243 L45.5708004,4.17401963 L45.5708004,13.5135135 L43.5135135,13.5135135 L43.5135135,4.17401963 C43.5135135,1.89182472 45.3455635,0.0374190924 47.6195531,0.000559199376 L47.6885957,0 L52.1621622,0 Z" id="路径-56" fill="#979797" fill-rule="nonzero"></path>
            <rect id="矩形" fill="#D8D8D8" x="41.7567568" y="8.91891892" width="6.08108108" height="15.5405405" rx="0.540540541"></rect>
            <rect id="矩形备份-84" fill="#D8D8D8" x="41.7567568" y="28.7837838" width="6.08108108" height="9.86486486" rx="0.540540541"></rect>
            <rect id="矩形" fill="#404040" x="12.5675676" y="49.3243243" width="6.21621622" height="10"></rect>
            <rect id="矩形" fill="#D8D8D8" x="13.1081081" y="50.4054054" width="5.13513514" height="1"></rect>
            <rect id="矩形备份-69" fill="#D8D8D8" x="13.1081081" y="52.972973" width="5.13513514" height="1"></rect>
            <rect id="矩形备份-70" fill="#D8D8D8" x="13.1081081" y="55.5405405" width="5.13513514" height="1"></rect>
            <rect id="矩形备份-71" fill="#D8D8D8" x="11.8918919" y="57.972973" width="7.56756757" height="1"></rect>
            <path d="M27.8924237,8.54606012 L16.3442097,8.54606012 C15.119587,8.54606012 14.0654144,9.41092514 13.8261319,10.6119433 L11.0400224,24.5961136 C10.8633301,25.4829761 10.7743407,26.3850742 10.7743407,27.2893668 L10.7743407,40.9459459 C10.7743407,41.990809 11.6213695,42.8378378 12.6662326,42.8378378 L20.9900326,42.8378378 C21.5779931,42.8378378 22.1325345,42.5644767 22.4906093,42.098129 C23.6711373,40.5606354 24.9660406,39.2790909 26.3753317,38.2526711 C27.3860772,37.5165213 28.5986783,36.9727886 30.0149877,36.6223048 L30.1368845,36.5927366 C31.7202106,36.2163618 32.8378378,34.8019195 32.8378378,33.1744737 L32.8378378,23.637239 C32.8378378,23.3763628 32.8087833,23.116298 32.7512114,22.8618537 L29.8694739,10.1257494 C29.660452,9.20195802 28.8395671,8.54606012 27.8924237,8.54606012 Z M16.3442097,9.08660066 L27.8924237,9.08660066 C28.5869956,9.08660066 29.1889778,9.56759245 29.3422605,10.2450395 L32.223998,22.9811437 C32.2727127,23.1964428 32.2972973,23.4164976 32.2972973,23.637239 L32.2972973,33.1744737 C32.2972973,34.5347496 31.3745376,35.7191611 30.0607132,36.0548079 L30.0118753,36.0668499 C28.4759931,36.4319467 27.1570628,37.0146067 26.0571008,37.8157349 C24.6048559,38.8734391 23.2731092,40.1914468 22.0618732,41.7689338 C21.8061055,42.1020393 21.4100044,42.2972973 20.9900326,42.2972973 L12.6662326,42.2972973 C11.9199018,42.2972973 11.3148812,41.6922767 11.3148812,40.9459459 L11.3148812,27.2893668 C11.3148812,26.4205366 11.4003808,25.5538149 11.5701441,24.7017314 L14.3562535,10.717561 C14.5451608,9.76938883 15.3774023,9.08660066 16.3442097,9.08660066 Z" id="路径-55" fill="#000000" fill-rule="nonzero"></path>
            <rect id="矩形" fill="#000000" opacity="0.56422061" x="26.2162162" y="25.6756757" width="3.91891892" height="1"></rect>
            <path d="M7.43243243,12.2972973 L7.43243243,12.2972973 L7.43243243,12.2972973 L7.43243243,23.5135135 C6.0890371,23.5135135 5,22.4244764 5,21.0810811 L5,14.7297297 C5,13.3863344 6.0890371,12.2972973 7.43243243,12.2972973 Z" id="矩形" fill="#000000"></path>
            <path d="M146.081081,41.6216216 L158.513514,41.6216216 L158.513514,46.3513514 C158.513514,46.4259844 158.453011,46.4864865 158.378378,46.4864865 L152.231767,46.4864865 C149.879125,46.4864865 147.73755,45.1294384 146.732957,43.0020654 L146.081081,41.6216216 L146.081081,41.6216216 Z" id="矩形" fill="#0086C5"></path>
            <rect id="矩形" fill="#F7B500" x="155.27027" y="42.7027027" width="2.7027027" height="1"></rect>
            <rect id="矩形备份-80" fill="#F7B500" x="155.27027" y="43.5135135" width="2.7027027" height="1"></rect>
            <rect id="矩形备份-81" fill="#F7B500" x="155.27027" y="44.3243243" width="2.7027027" height="1"></rect>
            <rect id="矩形" fill="#D8D8D8" x="51.6216216" y="3.24324324" width="106.486486" height="35.4054054"></rect>
        </g>
    </g>
</svg>